<svg height="511pt" viewBox="0 0 511 511.99977" width="511pt" xmlns="http://www.w3.org/2000/svg"><path d="m391.496094 316.003906c0 107.699219-87.300782 195.996094-195 195.996094-107.699219 0-195.996094-88.296875-195.996094-195.996094 0-107.699218 88.296875-195 195.996094-195 107.699218 0 195 87.300782 195 195zm0 0" fill="#dd8858"/><path d="m391.496094 316.003906c0 107.699219-87.300782 195.996094-195 195.996094v-390.996094c107.699218 0 195 87.300782 195 195zm0 0" fill="#ca6d36"/><path d="m506.492188 148.90625c-1.5-6-6-10.199219-12-11.402344-5.699219-.898437-12.699219 1.5-15.996094 6.601563-1.800782 2.398437-5.703125 6.898437-12.003906 6.898437-8.398438 0-15-6.597656-15.296876-12.597656 2.097657-7.800781-.300781-13.5-5.101562-17.101562-3.898438-3.296876-9.300781-4.199219-14.398438-2.398438-21.300781 8.101562-40.199218-8.101562-40.199218-27.902344 0-3.296875.601562-6.597656 2.097656-10.199218 1.800781-5.097657.902344-10.5-2.398438-14.398438-6-8.398438-17.699218-6.699219-14.699218-6.398438-8.402344 0-15-6.601562-15-15 0-6.300781 4.5-10.203124 6.898437-12.003906 5.101563-3.296875 7.5-9.296875 6.601563-15-1.203125-5.996094-5.402344-10.496094-11.402344-11.996094-15.898438-4.199218-31.796875-5.9999995-47.097656-5.9999995-106.800782-.9023435-194.996094 88.2968755-194.996094 195.9960935 0 107.398438 87.597656 194.996094 194.996094 194.996094 107.398437 0 195.996094-87.597656 195.996094-194.996094 0-15.300781-2.097657-31.199218-6-47.097656zm0 0" fill="#ffb751"/><path d="m512.492188 196.003906c0 107.398438-88.597657 194.996094-195.996094 194.996094v-390.9921875c15.300781 0 31.199218 1.8007815 47.097656 5.9999995 6 1.5 10.199219 6 11.402344 11.996094.898437 5.703125-1.5 11.703125-6.601563 15-2.398437 1.800782-6.898437 5.703125-6.898437 12.003906 0 8.398438 6.597656 15 15 15-3-.300781 8.699218-2 14.699218 6.398438 3.300782 3.898438 4.199219 9.300781 2.398438 14.398438-1.5 3.601562-2.097656 6.902343-2.097656 10.199218 0 19.800782 18.898437 36 40.199218 27.902344 5.097657-1.800781 10.5-.898438 14.398438 2.398438 4.800781 3.601562 7.199219 9.300781 5.101562 17.101562.296876 6 6.898438 12.597656 15.296876 12.597656 6.300781 0 10.203124-4.5 12.003906-6.898437 3.296875-5.101563 10.296875-7.5 15.996094-6.601563 6 1.203125 10.5 5.402344 12 11.402344 3.902343 15.898438 6 31.796875 6 47.097656zm0 0" fill="#ff9b00"/><path d="m391.496094 196.003906c0 8.285156-6.71875 15-15 15-8.285156 0-15-6.714844-15-15s6.714844-15 15-15c8.28125 0 15 6.714844 15 15zm0 0" fill="#a05528"/><path d="m361.496094 316.003906c0 8.28125-6.714844 15-15 15s-15-6.71875-15-15c0-8.285156 6.714844-15 15-15s15 6.714844 15 15zm0 0" fill="#a05528"/><path d="m91.5 286.003906c0 8.28125-6.71875 15-15 15-8.285156 0-15-6.71875-15-15 0-8.285156 6.714844-15 15-15 8.28125 0 15 6.714844 15 15zm0 0" fill="#895d3c"/><path d="m181.496094 406c0 8.285156-6.714844 15-15 15-8.28125 0-15-6.714844-15-15 0-8.28125 6.71875-15 15-15 8.285156 0 15 6.71875 15 15zm0 0" fill="#895d3c"/><path d="m301.496094 136.003906c0 8.285156-6.714844 15-15 15s-15-6.714844-15-15c0-8.28125 6.714844-15 15-15s15 6.71875 15 15zm0 0" fill="#ca6d36"/><path d="m497.492188 91.003906c-41.351563 0-76-34.644531-76-75.996094 0-8.292968 6.710937-14.9999995 15-14.9999995h61c8.292968 0 15 6.7070315 15 14.9999995v60.996094c0 8.292969-6.707032 15-15 15zm0 0" fill="#ff9b00"/><path d="m226.496094 121.003906c-24.8125 0-45-20.183594-45-45 0-24.8125 20.1875-45.996094 45-45.996094s45 21.183594 45 45.996094c0 24.816406-20.183594 45-45 45zm0 0" fill="#ca6d36"/><path d="m76.5 451c-24.816406 0-45-20.183594-45-45 0-24.8125 20.183594-45 45-45 24.8125 0 45 20.1875 45 45 0 24.816406-20.1875 45-45 45zm0 0" fill="#895d3c"/><path d="m239.578125 505.714844c-24.8125 0-45-21.183594-45-46 0-24.8125 20.1875-44.996094 45-44.996094s45 20.183594 45 44.996094c0 24.816406-20.1875 46-45 46zm0 0" fill="#714c2f"/><path d="m436.492188 331.003906c-24.8125 0-44.996094-20.1875-44.996094-45 0-24.816406 20.183594-45 44.996094-45 24.816406 0 45 20.183594 45 45 0 24.8125-20.183594 45-45 45zm0 0" fill="#a05528"/><path d="m316.496094 201.703125c-10.800782-12.597656-27-20.699219-45-20.699219-33 0-60 27-60 60s27 60 60 60c18 0 34.199218-8.101562 45-20.699218 9.597656-10.5 15-24.300782 15-39.300782s-5.398438-28.800781-15-39.300781zm0 0" fill="#ca6d36"/><path d="m331.496094 241.003906c0 15-5.402344 28.800782-15 39.300782v-78.601563c9.601562 10.5 15 24.300781 15 39.300781zm0 0" fill="#a05528"/></svg>